<svg xmlns="http://www.w3.org/2000/svg" version="1.1" xmlns:xlink="http://www.w3.org/1999/xlink" width="100" height="80.048"><svg width="100" height="80.048" viewBox="0 0 100 80.048" fill="none" xmlns="http://www.w3.org/2000/svg">
  <g>
    <g fill="#FFFFFF" fill-opacity="0.8">
      <path d="M90 0C95.5236 0 100 4.4764 100 10L100 70.0478C100 75.5714 95.5236 80.0478 90 80.0478L10 80.0478C4.4764 80.0478 0 75.5714 0 70.0478L0 10C0 4.4764 4.4764 0 10 0L90 0Z"></path>
      <path d="M100 10C100 4.4764 95.5236 0 90 0L10 0C4.4764 0 0 4.4764 0 10L0 70.0478C0 75.5714 4.4764 80.0478 10 80.0478L90 80.0478C95.5236 80.0478 100 75.5714 100 70.0478L100 10ZM10 0.999999L90 1Q93.7285 1 96.3642 3.63576Q99 6.27151 99 10L99 70.0478Q99 73.7763 96.3642 76.412Q93.7285 79.0478 90 79.0478L10 79.0478Q6.27151 79.0478 3.63576 76.412Q0.999999 73.7763 0.999999 70.0478L1 10Q1 6.27151 3.63576 3.63576Q6.27151 0.999999 10 0.999999Z" fill="#808080" fill-rule="evenodd"></path>
    </g>
    <g transform="translate(12.426 15.412)">
      <path d="M16.3334 0C19.0952 0 21.3334 2.2382 21.3334 5L21.3334 16.2888C21.3334 19.0506 19.0952 21.2888 16.3334 21.2888L5 21.2888C2.2382 21.2888 0 19.0506 0 16.2888L0 5C0 2.2382 2.2382 0 5 0L16.3334 0Z" fill="#7226FF"></path>
      <path d="M16.3334 0C19.0952 0 21.3334 2.2382 21.3334 5L21.3334 16.2888C21.3334 19.0506 19.0952 21.2888 16.3334 21.2888L5 21.2888C2.2382 21.2888 0 19.0506 0 16.2888L0 5C0 2.2382 2.2382 0 5 0L16.3334 0Z" fill="#7226FF" transform="translate(26.506 0)"></path>
      <path d="M10.689 0C16.5685 0 21.3334 4.76487 21.3334 10.6444L21.3334 10.6444C21.3334 16.524 16.5685 21.2888 10.689 21.2888L10.6444 21.2888C4.76487 21.2888 0 16.524 0 10.6444L0 10.6444C0 4.76487 4.76487 0 10.6444 0L10.689 0Z" fill="#3D3846" transform="translate(53.815 0)"></path>
      <path d="M10.689 0C16.5685 0 21.3334 4.76487 21.3334 10.6444L21.3334 10.6444C21.3334 16.524 16.5685 21.2888 10.689 21.2888L10.6444 21.2888C4.76487 21.2888 0 16.524 0 10.6444L0 10.6444C0 4.76487 4.76487 0 10.6444 0L10.689 0Z" fill="#3D3846" transform="translate(0 28.054)"></path>
      <path d="M43.6261 0C46.3878 0 48.6261 2.2382 48.6261 5L48.6261 16.2664C48.6261 19.0282 46.3878 21.2664 43.6261 21.2664L5 21.2664C2.2382 21.2664 0 19.0282 0 16.2664L0 5C0 2.2382 2.2382 0 5 0L43.6261 0Z" fill="#7226FF" transform="translate(26.523 28.076)"></path>
    </g>
  </g>
</svg><style>@media (prefers-color-scheme: light) { :root { filter: none; } }
@media (prefers-color-scheme: dark) { :root { filter: none; } }
</style></svg>